<svg id="Guidelines" xmlns="http://www.w3.org/2000/svg" viewBox="0 0 96 96"><defs><style>.cls-1{fill:#00aeef;}.cls-2{fill:#fff;}</style></defs><title>Advanced-Grid-96_neh_icons</title><circle class="cls-1" cx="47.71" cy="48" r="48"/><path class="cls-2" d="M12.72,65.77a1,1,0,0,1-.79-1.53c.27-.37.69-.83,1.22-1.41,2.31-2.52,6.61-7.23,6.58-13.58s-4.34-11.09-6.65-13.66c-.5-.56-.9-1-1.14-1.34a1,1,0,0,1-.09-1,1,1,0,0,1,.87-.53,16.62,16.62,0,0,1,15.39,10.5C37,36.39,47.69,32.35,57,32.35c23.36,0,30.52,14.58,30.82,15.2a1,1,0,0,1,0,.89c-.35.61-8.71,15.09-30.79,15.09a46.74,46.74,0,0,1-28.52-9.4A16.6,16.6,0,0,1,12.72,65.77ZM15,34.82c2.43,2.74,6.63,7.83,6.67,14.42S17.44,61,15,63.66A14.69,14.69,0,0,0,27,52.24a1,1,0,0,1,.62-.71,1,1,0,0,1,.94.17A44.57,44.57,0,0,0,57,61.6c18.84,0,27.26-11.28,28.83-13.67-1.4-2.4-9-13.64-28.83-13.64-9.29,0-20.06,4.21-28.79,11.28a1,1,0,0,1-.89.17,1,1,0,0,1-.64-.65A14.66,14.66,0,0,0,15,34.82Z"/><path class="cls-2" d="M52.06,72.4h-.14L39.39,70.6a1,1,0,0,1-.77-.62,1,1,0,0,1,.19-1l4.35-4.87a1,1,0,0,1,1.37-.08,1,1,0,0,1,.07,1.37L41.45,69,51.68,70.4l3-3.34a1,1,0,0,1,1.43,1.29l-3.33,3.73A1,1,0,0,1,52.06,72.4Z"/><path class="cls-2" d="M40.5,34.06a.83.83,0,0,1-.34-.07,1,1,0,0,1-.57-1.24l3.37-9a.94.94,0,0,1,1.17-.59L60,27.8a1,1,0,1,1-.53,1.85l-15-4.35L41.4,33.43A1,1,0,0,1,40.5,34.06Z"/><path class="cls-2" d="M64,57.21a.88.88,0,0,1-.39-.08c-2.4-1.05-4.57-5.59-4.57-9.52,0-3.7,2-8.57,4.62-9.55a1,1,0,1,1,.67,1.81c-1.47.54-3.36,4.4-3.36,7.74s1.88,7.08,3.41,7.76A1,1,0,0,1,64,57.21Z"/></svg>